<svg width="512" height="512" version="1.1" viewBox="0 0 512 512" xmlns="http://www.w3.org/2000/svg" xmlns:xlink="http://www.w3.org/1999/xlink">
	<style>
		.green {
			fill: #206040;
			stroke-width: 0;
		}
		@media (prefers-color-scheme: dark) {
			.green {
				fill: #40bf80;
				stroke-width: 0;
			}
		}
		.white {
			fill: #ffffff;
			stroke-width: 0;
		}
	</style>
	<circle class="green" cx="256" cy="256" r="256"/>
	<g class="white" id="horse">
		<path id="body" d="m444.04 176.32c-0.35165 0.10775-0.75309 0.43982-1.6582 0.89062-7.9279 3.9506-16.715 5.2558-26.15 5.4219-5.3434 0.0948-10.33 2.0862-15.529 3.6445-9.129 2.7354-18.355 6.2073-27.291 10.551-20.242 9.8394-51.194 31.652-59.362 29.441-75.807-20.507-133.85-23.218-179.69-11.447-15.746 4.0444-30.371 8.5232-43.344 16.31-10.756 6.4572-19.95 15.656-28.967 24.889-6.4217 6.5746-13.023 12.632-18.822 20.146l-6.5977 9.3125-3.5918 5.2637c-0.37629 0.54387-0.81779 1.046-1.1309 1.6269-0.1746 0.32613-0.3164 0.69223-0.3164 1.0625 0 0.2614 0.13327 0.53451 0.3164 0.72265 0.16557 0.16808 0.42094 0.24991 0.65626 0.27149 0.33164 0.0311 0.67053-0.035 0.99415-0.11328 0.26892-0.0657 0.53126-0.17341 0.76758-0.31641 0.30305-0.18413 0.55748-0.43654 0.83595-0.65429 0.34669-0.28599 0.73397-0.53225 1.041-0.85938 5.4397-5.8014 11.15-10.896 16.346-15.951 9.2565-9.0055 17.703-17.305 26.367-24.062 10.049-7.839 18.975-15.51 29.98-20.195 12.311-5.242 25.992-7.8385 40.978-10.547 0.88907-0.16055 1.8299-0.23485 2.7109-0.0898 0.65326 0.10787 1.3616 0.23745 1.8984 0.63281 0.53886 0.39536 1.0123 0.97772 1.1738 1.627 0.13045 0.5238 0.69948 2.3679 0.45314 3.5254-1.6592 7.7858-5.4954 14.177-9.713 20.297-3.6069 5.2335-7.2044 10.487-13.189 13.816-3.2632 1.8158-7.554 2.6719-11.627 3.4902-1.904 0.38281-5.109-0.70463-7.6192-2.0332-3.1664-1.6788-5.6588-4.0956-7.4766-3.3887-10.214 3.9666-19.414 11.606-28.85 19.873-8.5179 7.4632-17.346 15.271-25.203 24.33l-2.4414 3.5273c-0.39084 0.99443-1.2406 1.9143-1.1738 2.9805 0.0662 1.0647 0.69075 2.1535 1.5352 2.8027 0.86298 0.66379 2.0909 0.99307 3.164 0.81446 1.4354-0.23832 2.6565-1.2121 3.8867-1.9883 1.1655-0.73603 2.1817-1.6878 3.2715-2.5312 6.7839-6.2219 13.368-11.161 19.955-15.723 13.273-9.1881 26.309-15.573 39.223-19.033 11.163-2.9918 22.087-3.6452 31.941-6.7344 14.72-4.6149 21.53-17.105 22.281-29.685 0.1736-2.908 0.12357-6.0001-0.40624-8.9121-0.26341-1.4475-0.92578-2.7265-1.418-4.1133-0.24084-0.67733-0.54857-1.3353-0.72267-2.0332-0.34619-1.3883-0.68675-3.3574 1.6719-2.7578 2.8669 0.72851 5.3598 0.56587 8.0215 1.3144 11.49 3.2311 20.772 7.9385 29.109 11.307 24.883 10.052 38.976 18.629 54.228 21.693 7.5024 1.5077 35.951-0.61473 41.521-5.3886 0.25588-0.21976 3.4709-2.8315 4.3379-1.3574 0.60207 1.0245 1.2381 2.0326 1.8086 3.0742 10.591 19.362 21.622 37.748 33.627 54.234 3.7875 6.1843 3.6868 12.924 0.72461 20.07l-2.5312 4.5195-2.1699 3.0723c-1.029 1.458-4.3071 2.214-3.6152 4.1582 0.42397 1.1926 1.6914 2.2715 1.6914 2.2715 6.4016 1.7801 13.708-6.9146 18.195-12.394 3.3219-4.9425 3.2459-9.8846 1.2656-14.826l-19.002-38.418c-1.7681-4.8186-0.82474-9.8842 2.7109-15.185l5.4258-7.5019c0.45959-0.63619 0.53283-2.6762-0.18164-2.3496l-4.3379 1.9863c-13.426 6.1542-20.504 0.12859-18.672-6.5098 0.6939-2.5111 3.3238-4.5152 6.0156-7.4101 20.94-19.685 41.091-33.83 57.58-38.687 15.774-4.6475 28.325 0.93709 27.933 18.078-0.23731 10.393 0.0276 13.051 2.752 15.904 1.4726 1.5413 5.9256 7.8445 7.6485 7.7422 12.701-0.75159 26.143-6.3432 35.338-15.6 1.8293-1.8433 1.4769-8.7821 3.8496-13.34 1.5067-2.895 6.1624-3.9141 11-5.5156l5.582-1.8457c1.4771-0.59957 6.2264-2.0858 1.8066-3.1641l-14.824-3.6172c-13.597-0.0326-19.531 3.432-21.514 3.6172l-22.238 2.0781c-2.5046 0.23481-5.8046 3.9579-7.9981 1.4648-4.3214-4.9129 3.6008-5.0317 4.9238-6.3457l8.4727-8.4082c1.7616-2.777 17.493-9.9565 13.711-12.363-0.70568-0.44929-1.0077-0.56673-1.3594-0.45898zm4.498 30.494c1.7947 0.0207 3.5419 0.34561 5.2384 1.0039 5.1467 1.5885 7.1615 5.5179 3.4355 9.2207-6.5471 6.5054-15.958 8.8283-24.496 11.57-5.5426 1.2317-6.9958-3e-3 -5.6972-8.9492 1.1043-7.5966 8.8345-9.0466 14.375-11.48 2.4525-0.91609 4.8371-1.3918 7.1446-1.3652z"/>
		<path id="front_leg" d="m384.94 263.64c10.569-5.7824 28.706-5.8943 33.988-2.8915 3.2316 1.8343 5.774 4.0138 7.349 6.946 3.6666 6.8256 8.9595 23.304 8.7418 36.351-0.0507 3.0741 1.5483 6.1778-0.36126 8.5881-0.78219 0.98691-4.0289 0.74005-5.2431-1.9894-3.9491-8.8836-6.054-18.531-8.9264-28.959-2.3145-8.404-9.7201-12.802-16.023-12.441-8.4367 0.48216-16.872 2.2297-25.31 1.7852-1.145-0.0597-3.183 0.59907-3.4348-0.51929-0.29401-1.3035 0.15855-2.4409 1.0848-2.892z"/>
		<path id="back_leg" d="m155.57 274.89c14.784-8.3944 27.474-9.4896 38.87-3.7951 16.852 8.4205 7.8888 33.224-10.576 13.196-7.7784-7.5941-15.346-4.5045-23.005-1.174-20.825 9.0557-33.797 23.742-45.424 40.315l-4.8808 7.5921c-0.81231 1.2633-1.7666 0.79975-1.8875-0.19267-0.15202-1.2598 0.36678-3.5256 0.8936-4.8688 8.7588-22.322 22.844-40.689 46.01-51.073"/>
		<path id="eye" d="m445.73 212.88c1.5433-0.20019 2.917-0.36225 4.3389 0.27093 2.4264 1.0822 1.1174 3.9707-0.72199 4.791-1.8092 0.80627-4.9917 2.1624-6.8713 1.5368-1.4846-0.4947-1.7661-2.765-1.2644-4.2481 0.54187-1.608 2.8358-2.1318 4.5186-2.3506"/>
	</g>
	<g class="white" id="letters">
		<path id="w1" d="m35.157 191.96 31.485-0.0117-23.519-21.666 31.868-6e-3 -23.025-21.09 2.7105-6.9027 36.342 33.443-1.8403 4.6802-25.453-0.0117 18.709 17.174-1.8521 4.7096-49.512 0.0816z"/>
		<path id="h1" d="m87.83 138.14 17.104 13.17-6.7851 8.8018-35.93-27.67 6.7851-8.8018 15.746 12.124 11.13-14.464-15.746-12.124 6.7263-8.7254 35.93 27.67-6.7263 8.7254-17.104-13.17z"/>
		<path id="i1" d="m98.534 89.767 8.2491-7.4436 30.386 33.661-8.2491 7.4436z"/>
		<path id="t1" d="m151.74 51.059 2.0579 3.2514-13.264 8.3961 22.184 35.072-9.3957 5.9384-22.184-35.072-13.27 8.3961-2.0579-3.2514z"/>
		<path id="e1" d="m195.61 34.42 1.2994 3.6277-21.408 7.6729 5.0506 14.088 17.774-6.3735 1.3112 3.663-17.774 6.3735 6.0678 16.933 21.408-7.6729 1.5699 4.3803-31.873 11.418-15.299-42.692z"/>
		<path id="h2" d="m241.63 51.147 0.54688 21.584-11.107 0.28223-1.1466-45.332 11.107-0.28224 0.49984 19.861 18.244-0.45861-0.49984-19.861 11.013-0.28222 1.1466 45.332-11.013 0.28223-0.54688-21.584z"/>
		<path id="o1" d="m299.47 78.659c-2.3724-0.58061-4.5788-1.3979-6.6205-2.4518-2.0388-1.051-3.8673-2.2901-5.4857-3.7159-1.6198-1.4229-3.0221-3.0104-4.2098-4.7625-1.1877-1.7551-2.1079-3.6292-2.7576-5.6209-0.65118-1.9947-1.0216-4.0775-1.1112-6.25-0.0912-2.1755 0.1424-4.398 0.69968-6.6675 0.54096-2.2298 1.3464-4.2686 2.4165-6.1148 1.073-1.8462 2.3518-3.4749 3.8335-4.886 1.4816-1.4111 3.1485-2.6047 5.0036-3.5807 1.858-0.97896 3.8276-1.7066 5.909-2.1813 2.0814-0.47331 4.2656-0.69968 6.5558-0.67616 2.293 0.02373 4.6243 0.32632 6.9968 0.90547 2.371 0.58059 4.5773 1.3876 6.6205 2.4224 2.0417 1.0319 3.8762 2.2431 5.5033 3.6336 1.6257 1.392 3.0398 2.9442 4.2392 4.6567 1.1995 1.7139 2.1299 3.5381 2.7928 5.4739 0.66592 1.9329 1.0496 3.9614 1.1525 6.0854 0.1056 2.1211-0.1104 4.2848-0.6467 6.4911-0.56898 2.3327-1.3994 4.4597-2.493 6.3794-1.0907 1.9212-2.3842 3.616-3.8806 5.0859-1.4935 1.4699-3.1721 2.7017-5.033 3.6983-1.8624 0.99954-3.8379 1.7521-5.9267 2.2578-2.0902 0.50859-4.2789 0.74965-6.5676 0.7232-2.2901-0.02373-4.6199-0.32632-6.9909-0.90546zm0.91136-3.7394c2.1431 0.52475 4.154 0.49536 6.0325-0.08816 1.877-0.58061 3.5836-1.6051 5.1212-3.075 1.5405-1.4655 2.8869-3.3279 4.0393-5.5856 1.1554-2.2578 2.0785-4.7978 2.7693-7.62 0.6776-2.7869 1.0142-5.4093 1.0114-7.8669 0-2.4577-0.3528-4.6567-1.0584-6.5969-0.7056-1.9432-1.7639-3.5807-3.175-4.9095-1.411-1.3288-3.1897-2.2548-5.3328-2.7811-2.1681-0.52917-4.1907-0.52917-6.0678 0-1.8785 0.52622-3.5733 1.4875-5.0859 2.8869-1.5096 1.3994-2.831 3.1912-3.9629 5.374-1.1333 2.1843-2.0388 4.6684-2.7164 7.4554-0.69088 2.8222-1.0451 5.5004-1.0642 8.0316-0.0187 2.5327 0.30864 4.8037 0.98784 6.8145 0.6776 2.0108 1.7228 3.7086 3.1338 5.0918 1.411 1.3832 3.2 2.3401 5.3681 2.8693z"/>
		<path id="r1" d="m348.96 46.058 15.017 8.0551c2.5782 1.3846 4.6949 2.8693 6.35 4.4568 1.658 1.5875 2.8707 3.2147 3.6395 4.8801 0.76717 1.6625 1.1171 3.3323 1.0466 5.0094-0.0672 1.6742-0.52176 3.297-1.3642 4.8683-0.59971 1.1216-1.3934 2.074-2.3812 2.8575-0.98483 0.78493-2.1079 1.3861-3.369 1.805-1.2582 0.4204-2.6282 0.66146-4.1099 0.7232-1.4787 0.0632-3.0162-0.05584-4.6155-0.35866l3.963 26.77-10.63-5.7032-3.7335-25.318-1.7404-0.93488-9.7131 18.103-9.7955-5.2505zm-0.0816 23.66 2.1343 1.1465c1.1995 0.64382 2.3989 1.0701 3.5984 1.2818 1.1994 0.20872 2.3401 0.19989 3.422-0.02373 1.0848-0.22635 2.0873-0.67763 3.0045-1.3523 0.91726-0.67763 1.683-1.589 2.2989-2.734 0.55997-1.0466 0.91136-2.0961 1.0524-3.1515 0.144-1.0539 0.0992-2.0593-0.136-3.0163-0.232-0.95544-0.64976-1.8242-1.2523-2.6047-0.59968-0.78345-1.3788-1.4317-2.3342-1.9462l-3.9864-2.1402z"/>
		<path id="s1" d="m374.36 116.61c-2.074-1.7639-3.6806-3.5498-4.8213-5.3563-1.1377-1.808-1.8859-3.6042-2.246-5.3916-0.36157-1.7845-0.35869-3.5366 5e-3 -5.2623 0.36749-1.7242 1.0289-3.3925 1.9814-5.0036l5.8678 4.9977c-0.51742 1.0348-0.90398 2.0932-1.1582 3.175-0.25146 1.0848-0.3117 2.1578-0.1824 3.2162 0.1296 1.0583 0.47182 2.0946 1.0289 3.1103 0.5557 1.0142 1.3773 1.9829 2.4636 2.9045 0.72467 0.61883 1.5022 1.1495 2.3342 1.5934 0.83488 0.44685 1.6757 0.73789 2.5224 0.87606 0.8496 0.13664 1.6816 0.0706 2.493-0.19992 0.81437-0.26752 1.5669-0.80405 2.2578-1.611 0.8776-1.0319 1.3906-2.1681 1.5405-3.4102 0.1488-1.2435 0.0701-2.5606-0.2352-3.9511-0.30576-1.3876-0.77312-2.8369-1.3994-4.345-0.6232-1.5081-1.267-3.0398-1.9285-4.592-0.65856-1.5522-1.2759-3.1103-1.8521-4.6743-0.57619-1.564-0.9672-3.1015-1.1701-4.6155-0.20426-1.5125-0.1568-2.9766 0.1408-4.3921 0.30131-1.4185 0.98931-2.7575 2.0638-4.0158 1.1671-1.3714 2.5488-2.3886 4.1452-3.0515 1.5992-0.66587 3.3337-0.94221 5.2034-0.82902 1.8697 0.11472 3.8335 0.63206 5.8914 1.5522 2.0579 0.91722 4.1392 2.2725 6.2442 4.0628 1.7477 1.4861 3.1177 3.0692 4.1098 4.7507 0.99523 1.6816 1.6757 3.397 2.0402 5.1447 0.36448 1.7448 0.43075 3.4969 0.2 5.2564-0.22773 1.7565-0.704 3.4543-1.4288 5.0918l-5.3266-4.5391c0.39104-1.0848 0.70112-2.1711 0.92896-3.2573 0.23066-1.0892 0.28813-2.1711 0.17066-3.2456-0.1168-1.073-0.45568-2.1343-1.0114-3.1809-0.55712-1.0466-1.4272-2.0726-2.6105-3.0809-1.0981-0.93635-2.1505-1.5816-3.1574-1.9344-1.004-0.35571-1.9315-0.51152-2.7811-0.46449-0.84672 0.04416-1.6051 0.25285-2.2754 0.62912-0.67024 0.37629-1.2332 0.83197-1.6874 1.3641-0.78781 0.92605-1.2318 1.9932-1.3288 3.2044-0.0992 1.2112 0.0304 2.5194 0.388 3.9217 0.35568 1.4038 0.84816 2.884 1.4758 4.4391 0.62624 1.5522 1.2789 3.1338 1.9579 4.7449 0.6776 1.6081 1.3112 3.2176 1.8991 4.8331 0.59088 1.6184 1.001 3.2014 1.2288 4.7507 0.23067 1.5478 0.2088 3.0295-0.064 4.445-0.2705 1.414-0.91424 2.7193-1.9285 3.9158-1.1995 1.4067-2.6032 2.4636-4.2098 3.1691-1.6037 0.7085-3.3573 1.026-5.2622 0.9525-1.905-0.0706-3.9202-0.57032-6.0442-1.4993-2.1217-0.92897-4.2795-2.3283-6.4741-4.198z"/>
		<path id="e2" d="m448.04 130.11-3.0457 2.3577-13.923-17.98-11.836 9.1664 11.565 14.934-3.075 2.3754-11.565-14.934-14.229 11.018 13.923 17.98-3.6748 2.8458-20.726-26.764 35.86-27.764z"/>
		<path id="h3" d="m72.678 353.31-18.597 10.965-5.6444-9.572 39.064-23.03 5.6445 9.572-17.116 10.089 9.2722 15.722 17.116-10.089 5.5974 9.4898-39.064 23.03-5.5974-9.4897 18.597-10.966z"/>
		<path id="a1" d="m127.39 385.59-18.297 47.572-7.9493-8.1316 4.9036-12.712-12.312-12.6-13.017 4.398-5.3034-5.421 48.619-16.545zm-29.175 12.653 9.5426 9.766 5.7856-15.04z"/>
		<path id="r2" d="m142.53 401.28 14.335 9.2134c2.4606 1.5802 4.4568 3.2264 5.9855 4.9389 1.5286 1.7095 2.6076 3.4249 3.2397 5.1447 0.63504 1.7168 0.85248 3.4087 0.65264 5.0741-0.19696 1.6669-0.77616 3.25-1.7404 4.7507-0.6864 1.0701-1.5522 1.9579-2.5988 2.6635-1.0466 0.70256-2.2152 1.2141-3.5043 1.5346-1.2906 0.32192-2.6738 0.45568-4.151 0.39984-1.4787-0.0544-3.003-0.29552-4.5744-0.7232l1.8462 26.999-10.148-6.5205-1.7345-25.535-1.6639-1.0642-11.101 17.286-9.3486-6.009zm-1.9403 23.583 2.0344 1.3052c1.1436 0.73792 2.3063 1.2582 3.4866 1.564 1.1833 0.30272 2.3239 0.38208 3.422 0.24133 1.0965-0.1408 2.1299-0.51152 3.0986-1.1112 0.9672-0.6027 1.8006-1.4523 2.4988-2.5459 0.64235-0.99949 1.0774-2.0182 1.3053-3.0574 0.22635-1.0378 0.26019-2.0432 0.1-3.0163-0.15728-0.97165-0.50564-1.8712-1.0466-2.6988-0.53799-0.82605-1.2627-1.5345-2.1755-2.1225l-3.8041-2.44z"/>
		<path id="r3" d="m176.97 422.59 16.005 5.8472c2.7472 1.0024 5.0556 2.171 6.9225 3.5068 1.8662 1.3328 3.2949 2.77 4.2887 4.3095 0.99589 1.5359 1.5789 3.1389 1.749 4.8076 0.17364 1.6695-0.0448 3.3411-0.65665 5.0167-0.43517 1.1945-1.0853 2.2505-1.9518 3.1684-0.8671 0.91488-1.8951 1.6701-3.0826 2.2654-1.1886 0.59698-2.5089 1.0307-3.9624 1.3-1.4547 0.27105-2.9948 0.36997-4.6216 0.29676l7.7195 25.938-11.331-4.1374-7.2896-24.534-1.8568-0.67358-7.0416 19.299-10.438-3.8137zm3.2763 23.435 2.271 0.82758c1.2775 0.4693 2.526 0.72209 3.7446 0.76171 1.2209 0.0361 2.3512-0.13669 3.3916-0.51461 1.039-0.37776 1.966-0.96597 2.7796-1.7634 0.81159-0.80005 1.4385-1.8117 1.88-3.0317 0.40765-1.116 0.60886-2.2052 0.60334-3.2691-6e-3 -1.0622-0.1941-2.0505-0.5636-2.9649-0.36643-0.91354-0.9035-1.7148-1.6127-2.4037-0.70596-0.68803-1.5683-1.2204-2.5878-1.594l-4.2464-1.5468z"/>
		<path id="i2" d="m219.71 482.09-10.926-2.0171 8.2235-44.595 10.926 2.0171z"/>
		<path id="e3" d="m269.69 439.88-0.0859 3.8524-22.736-0.5022-0.32918 14.962 18.878 0.41414-0.0877 3.8897-18.878-0.41416-0.39857 17.983 22.736 0.50223-0.10272 4.652-33.849-0.75314 1.0041-45.339z"/>
		<path id="r4" d="m274.2 439.44 16.732-3.2279c2.8711-0.55539 5.4518-0.74171 7.7399-0.55781 2.286 0.18173 4.2509 0.67821 5.8954 1.4863 1.6445 0.80394 2.9696 1.878 3.9746 3.221 1.0084 1.3418 1.6818 2.8873 2.02 4.6388 0.24194 1.248 0.22831 2.4881-0.0421 3.721-0.27229 1.2308-0.76477 2.4076-1.4764 3.5292-0.71162 1.1238-1.6201 2.1753-2.7276 3.1546-1.1075 0.9813-2.3768 1.859-3.8092 2.6339l19.972 18.262-11.844 2.2868-18.881-17.279-1.9386 0.37846 3.8997 20.17-10.912 2.105zm14.874 18.403 2.373-0.45986c1.3368-0.25545 2.5372-0.68148 3.6024-1.275 1.0653-0.59754 1.9453-1.3277 2.6426-2.1873 0.69626-0.85879 1.1881-1.8403 1.475-2.9429 0.2838-1.1037 0.30044-2.2937 0.051-3.5669-0.22545-1.1665-0.61341-2.204-1.1659-3.1132-0.55202-0.9075-1.2221-1.658-2.0096-2.2515-0.78452-0.59449-1.6574-1.0049-2.6201-1.2304-0.95947-0.22636-1.9728-0.23876-3.0391-0.0344l-4.4368 0.86037z"/>
		<path id="s2" d="m346.38 467.09c-2.5018 1.0745-4.8139 1.7227-6.938 1.9462-2.121 0.22054-4.0628 0.0944-5.8267-0.37632-1.7609-0.47042-3.3323-1.2494-4.7154-2.3401-1.3803-1.0936-2.5812-2.4253-3.6042-3.9981l7.0849-3.0398c0.69376 0.9216 1.4699 1.7374 2.3283 2.4459 0.8584 0.70992 1.7904 1.2406 2.7987 1.5934 1.0114 0.34979 2.0946 0.49987 3.2514 0.45283 1.1554-0.0464 2.3871-0.34992 3.6924-0.91136 0.88192-0.37632 1.7051-0.83776 2.4694-1.3875 0.76739-0.55267 1.4008-1.1774 1.8991-1.8756 0.50128-0.70115 0.81139-1.4758 0.92896-2.3225 0.12-0.8496-0.0285-1.7639-0.44688-2.7399-0.53792-1.2466-1.3288-2.2107-2.3754-2.8928-1.0437-0.68211-2.2563-1.1936-3.6395-1.5346-1.3803-0.34397-2.8854-0.57181-4.5156-0.68205-1.6316-0.10907-3.2867-0.21173-4.9683-0.30576-1.6816-0.0976-3.3514-0.2368-5.0094-0.41744-1.658-0.17947-3.2103-0.51299-4.6567-0.99952-1.4493-0.48512-2.7414-1.1775-3.8747-2.0755-1.1362-0.90112-2.0314-2.1108-2.687-3.6278-0.70845-1.6581-1.0069-3.3485-0.89376-5.0741 0.1152-1.7242 0.63792-3.3999 1.57-5.0271 0.92893-1.6257 2.2622-3.1574 3.9981-4.592 1.7375-1.4376 3.8747-2.7046 6.4147-3.7982 2.1079-0.90112 4.1348-1.4243 6.0796-1.5699 1.9476-0.144 3.7864 8e-3 5.5151 0.45856 1.7286 0.44688 3.3293 1.1627 4.8036 2.1461 1.4728 0.9848 2.784 2.1666 3.9335 3.5454l-6.4323 2.7634c-0.79971-0.83792-1.6375-1.6007-2.5106-2.2871-0.87454-0.68944-1.8197-1.2186-2.834-1.5876-1.0156-0.37184-2.1152-0.54096-3.2984-0.5056-1.1848 0.0352-2.4901 0.35875-3.9159 0.97008-1.3259 0.56883-2.3724 1.226-3.1397 1.9697-0.76432 0.74531-1.3141 1.5082-1.6522 2.2872-0.33664 0.78051-0.48512 1.5552-0.44688 2.3225 0.04 0.7688 0.1984 1.4742 0.47632 2.1167 0.4792 1.1142 1.2392 1.9844 2.2813 2.6105 1.0465 0.62768 2.2754 1.0936 3.6865 1.3994 1.4141 0.30272 2.9589 0.516 4.6331 0.6408 1.6728 0.1264 3.3808 0.244 5.1212 0.3528 1.7433 0.1056 3.4704 0.2528 5.1799 0.44096 1.7124 0.18827 3.3117 0.52336 4.7978 1.0054 1.489 0.4792 2.8075 1.1554 3.957 2.0285 1.1525 0.87022 2.0358 2.027 2.6517 3.469 0.73202 1.6978 1.0584 3.4249 0.97602 5.18-0.08 1.7565-0.57472 3.4719-1.4875 5.1447-0.9099 1.6698-2.2519 3.25-4.0275 4.739-1.7727 1.4904-3.9835 2.8031-6.6323 3.9393z"/>
		<path id="a2" d="m375.65 393.89 46.09 21.766-8.696 7.3201-12.318-5.8267-13.476 11.342 3.4278 13.311-5.8032 4.886-12.906-49.706zm10.466 30.027 10.448-8.7959-14.576-6.8792z"/>
		<path id="period1" d="m422.93 406.92c-0.47776-0.41888-0.85248-0.90112-1.123-1.4464-0.27336-0.54381-0.43072-1.1083-0.4704-1.6933-0.0432-0.588 0.0285-1.1715 0.21173-1.7521 0.18507-0.58355 0.48656-1.1171 0.90547-1.5992 0.416-0.48208 0.90397-0.85987 1.464-1.1348 0.56-0.27333 1.1319-0.43069 1.7168-0.47037 0.58352-0.0384 1.1672 0.0336 1.7521 0.2176 0.588 0.1808 1.12 0.48061 1.5992 0.89952 0.48208 0.42045 0.85408 0.90845 1.1171 1.464 0.26587 0.55264 0.41886 1.1216 0.45854 1.7051 0.0432 0.58062-0.0352 1.1641-0.2352 1.7521-0.19974 0.58496-0.50864 1.1171-0.92302 1.5992-0.42032 0.48208-0.90258 0.8584-1.4464 1.129-0.54528 0.27051-1.1098 0.42771-1.6934 0.47043-0.58496 0.0445-1.167-0.0304-1.7462-0.2232-0.57616-0.1912-1.1054-0.4968-1.5875-0.91726z"/>
		<path id="c1" d="m426.83 372.02c2.5135 1.5141 4.9624 2.4694 7.3495 2.8693 2.3842 0.39984 4.6096 0.36304 6.6793-0.112 2.0725-0.47779 3.9423-1.3362 5.6091-2.5753 1.6654-1.242 3.0295-2.7458 4.0922-4.5096 0.81872-1.3642 1.3435-2.7752 1.5757-4.2334 0.2352-1.4611 0.26586-2.9428 0.0944-4.445-0.16907-1.5051-0.50864-3.0177-1.0171-4.5391-0.51008-1.5198-1.0995-3.0412-1.7698-4.5626l5.3152-2.2225c0.86576 1.686 1.5714 3.519 2.1167 5.4974 0.54832 1.9756 0.8584 4.0158 0.92896 6.1207 0.0704 2.102-0.1408 4.2186-0.63504 6.35-0.49085 2.1285-1.3331 4.1848-2.5282 6.1678-2.0152 3.344-4.3553 6.1295-7.0202 8.3549-2.6664 2.2269-5.5063 3.8262-8.5196 4.7978-3.0133 0.9731-6.1119 1.2803-9.2957 0.92304-3.1823-0.3557-6.3-1.4552-9.3545-3.2985-1.9638-1.1789-3.6836-2.5473-5.1623-4.104-1.4773-1.5595-2.6943-3.2529-3.6512-5.08-0.95555-1.8256-1.6404-3.7688-2.052-5.8267-0.41149-2.0579-0.5424-4.176-0.39392-6.3559 0.1504-2.1784 0.59392-4.395 1.3347-6.6498 0.73795-2.2578 1.7742-4.4979 3.1103-6.7204 1.3494-2.2343 2.8443-4.1275 4.4862-5.6797 1.6433-1.5522 3.3896-2.8046 5.2388-3.7571 1.8506-0.95248 3.7806-1.636 5.7914-2.052 2.0108-0.41456 4.054-0.61888 6.1266-0.61149l0.37632 5.7326c-1.6581 0.1168-3.2867 0.34544-4.886 0.68208-1.6022 0.3336-3.1191 0.8144-4.5508 1.4405-1.4302 0.62768-2.734 1.4038-3.91 2.3283-1.1759 0.92611-2.1593 2.0432-2.9516 3.3514-1.073 1.7845-1.761 3.6895-2.0637 5.715-0.30128 2.0226-0.16747 4.0437 0.39984 6.0619 0.5688 2.0197 1.6022 3.9673 3.0986 5.8444 1.4977 1.8786 3.5101 3.5778 6.0384 5.0976z"/>
		<path id="period2" d="m463.2 343.93c-0.58797-0.2352-1.0995-0.56592-1.5345-0.9936-0.43504-0.42624-0.76736-0.90848-0.99952-1.4464-0.2352-0.54096-0.36016-1.1171-0.37632-1.7286-0.0133-0.61152 0.0976-1.2126 0.3352-1.805 0.2352-0.59088 0.57325-1.1083 1.0114-1.5522 0.43952-0.4424 0.92893-0.77763 1.4699-1.0055 0.54096-0.23066 1.1171-0.35421 1.7286-0.3704 0.61152-0.0187 1.2112 0.088 1.7992 0.32339 0.59538 0.23947 1.1083 0.5792 1.5405 1.0171 0.43072 0.43504 0.76 0.9216 0.98784 1.458 0.23066 0.53795 0.34688 1.1157 0.34688 1.7345 3e-3 0.62029-0.112 1.2259-0.34688 1.8168-0.23947 0.59229-0.57328 1.1054-0.99952 1.5404-0.42336 0.43504-0.90398 0.7688-1.4405 0.99952-0.5379 0.232-1.1098 0.35136-1.7169 0.35875-0.60701 8e-3 -1.2083-0.1072-1.805-0.34688z"/>
	</g>
</svg>
